<?xml version="1.0" encoding="UTF-8"?>
<mxfile host="app.diagrams.net" modified="2024-01-31T13:04:29.256Z" agent="Mozilla/5.0 (Windows NT 10.0; Win64; x64) AppleWebKit/537.36 (KHTML, like Gecko) Chrome/121.0.0.0 Safari/537.36 Edg/121.0.0.0" etag="OMWrok198qY5ECkVpJja" version="23.0.2" type="browser">
  <diagram name="第 1 页" id="uVkd4KvrKCw7aUiNvQXj">
    <mxGraphModel dx="848" dy="592" grid="1" gridSize="10" guides="1" tooltips="1" connect="1" arrows="1" fold="1" page="1" pageScale="1" pageWidth="827" pageHeight="1169" math="0" shadow="0">
      <root>
        <mxCell id="0" />
        <mxCell id="1" parent="0" />
        <mxCell id="_YOE5mqV0CH9EQmjLfuh-866" style="edgeStyle=orthogonalEdgeStyle;rounded=0;orthogonalLoop=1;jettySize=auto;html=1;" edge="1" parent="1">
          <mxGeometry relative="1" as="geometry">
            <mxPoint x="346.5861321776816" y="196.38076233638856" as="sourcePoint" />
            <mxPoint x="93.39003250270855" y="275.52304934555417" as="targetPoint" />
            <Array as="points">
              <mxPoint x="346.5861321776816" y="240.34869956370278" />
              <mxPoint x="93.39003250270855" y="240.34869956370278" />
              <mxPoint x="93.39003250270855" y="275.52304934555417" />
            </Array>
          </mxGeometry>
        </mxCell>
        <mxCell id="_YOE5mqV0CH9EQmjLfuh-867" style="edgeStyle=orthogonalEdgeStyle;rounded=0;orthogonalLoop=1;jettySize=auto;html=1;entryX=0.5;entryY=0;entryDx=0;entryDy=0;" edge="1" parent="1">
          <mxGeometry relative="1" as="geometry">
            <mxPoint x="391.00650054171183" y="196.38076233638856" as="sourcePoint" />
            <mxPoint x="292.3932827735645" y="275.9099671931545" as="targetPoint" />
            <Array as="points">
              <mxPoint x="391.00650054171183" y="257.93587445462845" />
              <mxPoint x="292.3932827735645" y="257.93587445462845" />
            </Array>
          </mxGeometry>
        </mxCell>
        <mxCell id="_YOE5mqV0CH9EQmjLfuh-978" style="edgeStyle=orthogonalEdgeStyle;rounded=0;orthogonalLoop=1;jettySize=auto;html=1;" edge="1" parent="1">
          <mxGeometry relative="1" as="geometry">
            <mxPoint x="587.2157529794151" y="280.27304934555417" as="targetPoint" />
            <mxPoint x="480.60686890574215" y="201.13076233638856" as="sourcePoint" />
            <Array as="points">
              <mxPoint x="480.60686890574215" y="262.68587445462845" />
              <mxPoint x="588.1041603466954" y="262.68587445462845" />
              <mxPoint x="588.1041603466954" y="280.27304934555417" />
            </Array>
          </mxGeometry>
        </mxCell>
        <mxCell id="_YOE5mqV0CH9EQmjLfuh-979" style="edgeStyle=orthogonalEdgeStyle;rounded=0;orthogonalLoop=1;jettySize=auto;html=1;exitX=1;exitY=0.75;exitDx=0;exitDy=0;" edge="1" parent="1">
          <mxGeometry relative="1" as="geometry">
            <mxPoint x="731" y="275.63" as="targetPoint" />
            <mxPoint x="523.8255687973997" y="196.767680183989" as="sourcePoint" />
            <Array as="points">
              <mxPoint x="525" y="197" />
              <mxPoint x="525" y="229" />
              <mxPoint x="731" y="229" />
            </Array>
          </mxGeometry>
        </mxCell>
        <mxCell id="_YOE5mqV0CH9EQmjLfuh-1047" value="" style="endArrow=none;html=1;rounded=0;fontFamily=Times New Roman;fontSize=20;" edge="1" parent="1">
          <mxGeometry width="50" height="50" relative="1" as="geometry">
            <mxPoint x="494.14" y="280" as="sourcePoint" />
            <mxPoint x="494.14" y="304.8907744607744" as="targetPoint" />
          </mxGeometry>
        </mxCell>
        <mxCell id="_YOE5mqV0CH9EQmjLfuh-877" value="&lt;font style=&quot;font-size: 20px;&quot;&gt;7&lt;/font&gt;" style="shape=partialRectangle;whiteSpace=wrap;html=1;top=0;bottom=0;fillColor=none;container=0;fontFamily=Times New Roman;fontSize=20;" vertex="1" parent="1">
          <mxGeometry x="17.27242758828733" y="280.2708695302058" width="29.145514482342527" height="24.62450274598248" as="geometry" />
        </mxCell>
        <mxCell id="_YOE5mqV0CH9EQmjLfuh-878" value="&lt;font style=&quot;font-size: 20px;&quot;&gt;11&lt;/font&gt;" style="shape=partialRectangle;whiteSpace=wrap;html=1;top=0;bottom=0;fillColor=none;container=0;fontFamily=Times New Roman;fontSize=20;" vertex="1" parent="1">
          <mxGeometry x="53.7043206912155" y="280.2708695302058" width="29.145514482342527" height="24.62450274598248" as="geometry" />
        </mxCell>
        <mxCell id="_YOE5mqV0CH9EQmjLfuh-879" value="" style="shape=partialRectangle;whiteSpace=wrap;html=1;top=0;bottom=0;fillColor=none;container=0;fontFamily=Times New Roman;fontSize=20;" vertex="1" parent="1">
          <mxGeometry x="90.86485165620223" y="280.2708695302058" width="29.145514482342527" height="24.62450274598248" as="geometry" />
        </mxCell>
        <mxCell id="_YOE5mqV0CH9EQmjLfuh-880" value="" style="shape=partialRectangle;whiteSpace=wrap;html=1;top=0;bottom=0;fillColor=none;container=0;fontFamily=Times New Roman;fontSize=20;" vertex="1" parent="1">
          <mxGeometry x="126.56810689707186" y="280.2708695302058" width="29.145514482342527" height="24.62450274598248" as="geometry" />
        </mxCell>
        <mxCell id="_YOE5mqV0CH9EQmjLfuh-881" value="" style="endArrow=none;html=1;rounded=0;exitX=0;exitY=0;exitDx=0;exitDy=0;entryX=1;entryY=0;entryDx=0;entryDy=0;fontFamily=Times New Roman;fontSize=20;" edge="1" parent="1">
          <mxGeometry width="50" height="50" relative="1" as="geometry">
            <mxPoint x="9.986048967701699" y="280.2708695302058" as="sourcePoint" />
            <mxPoint x="163" y="280.2708695302058" as="targetPoint" />
          </mxGeometry>
        </mxCell>
        <mxCell id="_YOE5mqV0CH9EQmjLfuh-882" value="" style="endArrow=none;html=1;rounded=0;exitX=0;exitY=1;exitDx=0;exitDy=0;fontFamily=Times New Roman;fontSize=20;" edge="1" parent="1">
          <mxGeometry width="50" height="50" relative="1" as="geometry">
            <mxPoint x="9.986048967701699" y="304.8953722761883" as="sourcePoint" />
            <mxPoint x="163" y="304.8953722761883" as="targetPoint" />
          </mxGeometry>
        </mxCell>
        <mxCell id="_YOE5mqV0CH9EQmjLfuh-883" value="" style="endArrow=none;html=1;rounded=0;fontFamily=Times New Roman;fontSize=20;" edge="1" parent="1">
          <mxGeometry width="50" height="50" relative="1" as="geometry">
            <mxPoint x="9.986048967701699" y="280.2708695302058" as="sourcePoint" />
            <mxPoint x="9.986048967701699" y="305.1636173035922" as="targetPoint" />
          </mxGeometry>
        </mxCell>
        <mxCell id="_YOE5mqV0CH9EQmjLfuh-884" value="" style="endArrow=none;html=1;rounded=0;fontSize=20;fontFamily=Times New Roman;" edge="1" parent="1">
          <mxGeometry width="50" height="50" relative="1" as="geometry">
            <mxPoint x="163" y="280" as="sourcePoint" />
            <mxPoint x="163" y="304.8927477733864" as="targetPoint" />
          </mxGeometry>
        </mxCell>
        <mxCell id="_YOE5mqV0CH9EQmjLfuh-897" value="" style="endArrow=classic;html=1;rounded=0;entryX=0.5;entryY=0;entryDx=0;entryDy=0;fontFamily=Times New Roman;fontSize=11;" edge="1" parent="1">
          <mxGeometry width="50" height="50" relative="1" as="geometry">
            <mxPoint x="13.629238277994517" y="305.1636173035922" as="sourcePoint" />
            <mxPoint x="13.855116015232632" y="325.18127486859976" as="targetPoint" />
          </mxGeometry>
        </mxCell>
        <mxCell id="_YOE5mqV0CH9EQmjLfuh-902" value="" style="endArrow=classic;html=1;rounded=0;entryX=0.5;entryY=0;entryDx=0;entryDy=0;fontFamily=Times New Roman;fontSize=11;" edge="1" parent="1">
          <mxGeometry width="50" height="50" relative="1" as="geometry">
            <mxPoint x="49.66766693541108" y="305.1636173035922" as="sourcePoint" />
            <mxPoint x="49.8935446726492" y="325.18127486859976" as="targetPoint" />
          </mxGeometry>
        </mxCell>
        <mxCell id="_YOE5mqV0CH9EQmjLfuh-907" value="" style="endArrow=classic;html=1;rounded=0;entryX=0.5;entryY=0;entryDx=0;entryDy=0;fontFamily=Times New Roman;fontSize=11;" edge="1" parent="1">
          <mxGeometry width="50" height="50" relative="1" as="geometry">
            <mxPoint x="87.22166234590942" y="305.1636173035922" as="sourcePoint" />
            <mxPoint x="87.44754008314753" y="325.18127486859976" as="targetPoint" />
          </mxGeometry>
        </mxCell>
        <mxCell id="_YOE5mqV0CH9EQmjLfuh-1000" value="&lt;font style=&quot;font-size: 20px;&quot;&gt;21&lt;/font&gt;" style="shape=partialRectangle;whiteSpace=wrap;html=1;top=0;bottom=0;fillColor=none;container=0;fontFamily=Times New Roman;fontSize=20;" vertex="1" parent="1">
          <mxGeometry x="188.9134330791062" y="280.3208480576763" width="28.217313384178755" height="24.6225506978488" as="geometry" />
        </mxCell>
        <mxCell id="_YOE5mqV0CH9EQmjLfuh-1001" value="&lt;font style=&quot;font-size: 20px;&quot;&gt;27&lt;/font&gt;" style="shape=partialRectangle;whiteSpace=wrap;html=1;top=0;bottom=0;fillColor=none;container=0;fontFamily=Times New Roman;fontSize=20;" vertex="1" parent="1">
          <mxGeometry x="224.18507480932965" y="280.3208480576763" width="28.217313384178755" height="24.6225506978488" as="geometry" />
        </mxCell>
        <mxCell id="_YOE5mqV0CH9EQmjLfuh-1002" value="" style="shape=partialRectangle;whiteSpace=wrap;html=1;top=0;bottom=0;fillColor=none;container=0;fontFamily=Times New Roman;fontSize=20;" vertex="1" parent="1">
          <mxGeometry x="260.1621493741576" y="280.3208480576763" width="28.217313384178755" height="24.6225506978488" as="geometry" />
        </mxCell>
        <mxCell id="_YOE5mqV0CH9EQmjLfuh-1003" value="" style="shape=partialRectangle;whiteSpace=wrap;html=1;top=0;bottom=0;fillColor=none;container=0;fontFamily=Times New Roman;fontSize=20;" vertex="1" parent="1">
          <mxGeometry x="294.72835826977655" y="280.3208480576763" width="28.217313384178755" height="24.6225506978488" as="geometry" />
        </mxCell>
        <mxCell id="_YOE5mqV0CH9EQmjLfuh-1004" value="" style="endArrow=none;html=1;rounded=0;exitX=0;exitY=0;exitDx=0;exitDy=0;entryX=1;entryY=0;entryDx=0;entryDy=0;fontFamily=Times New Roman;fontSize=20;" edge="1" parent="1">
          <mxGeometry width="50" height="50" relative="1" as="geometry">
            <mxPoint x="181.8591047330615" y="280.3208480576763" as="sourcePoint" />
            <mxPoint x="330" y="280.3208480576763" as="targetPoint" />
          </mxGeometry>
        </mxCell>
        <mxCell id="_YOE5mqV0CH9EQmjLfuh-1005" value="" style="endArrow=none;html=1;rounded=0;exitX=0;exitY=1;exitDx=0;exitDy=0;fontFamily=Times New Roman;fontSize=20;" edge="1" parent="1">
          <mxGeometry width="50" height="50" relative="1" as="geometry">
            <mxPoint x="181.8591047330615" y="304.9433987555251" as="sourcePoint" />
            <mxPoint x="330" y="304.9433987555251" as="targetPoint" />
          </mxGeometry>
        </mxCell>
        <mxCell id="_YOE5mqV0CH9EQmjLfuh-1006" value="" style="endArrow=none;html=1;rounded=0;fontFamily=Times New Roman;fontSize=20;" edge="1" parent="1">
          <mxGeometry width="50" height="50" relative="1" as="geometry">
            <mxPoint x="181.8591047330615" y="280.3208480576763" as="sourcePoint" />
            <mxPoint x="181.8591047330615" y="305.2116225184506" as="targetPoint" />
          </mxGeometry>
        </mxCell>
        <mxCell id="_YOE5mqV0CH9EQmjLfuh-1007" value="" style="endArrow=none;html=1;rounded=0;fontFamily=Times New Roman;fontSize=20;" edge="1" parent="1">
          <mxGeometry width="50" height="50" relative="1" as="geometry">
            <mxPoint x="330" y="280.04999999999995" as="sourcePoint" />
            <mxPoint x="330" y="304.9407744607744" as="targetPoint" />
          </mxGeometry>
        </mxCell>
        <mxCell id="_YOE5mqV0CH9EQmjLfuh-1013" value="" style="endArrow=classic;html=1;rounded=0;entryX=0.5;entryY=0;entryDx=0;entryDy=0;fontFamily=Times New Roman;fontSize=11;" edge="1" parent="1">
          <mxGeometry width="50" height="50" relative="1" as="geometry">
            <mxPoint x="185.38626890608387" y="305.2116225184506" as="sourcePoint" />
            <mxPoint x="185.6049530848112" y="325.2276932318782" as="targetPoint" />
          </mxGeometry>
        </mxCell>
        <mxCell id="_YOE5mqV0CH9EQmjLfuh-1018" value="" style="endArrow=classic;html=1;rounded=0;entryX=0.5;entryY=0;entryDx=0;entryDy=0;fontFamily=Times New Roman;fontSize=11;" edge="1" parent="1">
          <mxGeometry width="50" height="50" relative="1" as="geometry">
            <mxPoint x="220.27697690562093" y="305.2116225184506" as="sourcePoint" />
            <mxPoint x="220.49566108434826" y="325.2276932318782" as="targetPoint" />
          </mxGeometry>
        </mxCell>
        <mxCell id="_YOE5mqV0CH9EQmjLfuh-1023" value="" style="endArrow=classic;html=1;rounded=0;entryX=0.5;entryY=0;entryDx=0;entryDy=0;fontFamily=Times New Roman;fontSize=11;" edge="1" parent="1">
          <mxGeometry width="50" height="50" relative="1" as="geometry">
            <mxPoint x="256.63498520113524" y="305.2116225184506" as="sourcePoint" />
            <mxPoint x="256.8536693798626" y="325.2276932318782" as="targetPoint" />
          </mxGeometry>
        </mxCell>
        <mxCell id="_YOE5mqV0CH9EQmjLfuh-1040" value="&lt;font style=&quot;font-size: 20px;&quot;&gt;38&lt;/font&gt;" style="shape=partialRectangle;whiteSpace=wrap;html=1;top=0;bottom=0;fillColor=none;container=0;fontFamily=Times New Roman;fontSize=20;" vertex="1" parent="1">
          <mxGeometry x="353.0534330791062" y="280.27084805767635" width="28.217313384178755" height="24.6225506978488" as="geometry" />
        </mxCell>
        <mxCell id="_YOE5mqV0CH9EQmjLfuh-1041" value="&lt;font style=&quot;font-size: 20px;&quot;&gt;42&lt;/font&gt;" style="shape=partialRectangle;whiteSpace=wrap;html=1;top=0;bottom=0;fillColor=none;container=0;fontFamily=Times New Roman;fontSize=20;" vertex="1" parent="1">
          <mxGeometry x="388.32507480932964" y="280.27084805767635" width="28.217313384178755" height="24.6225506978488" as="geometry" />
        </mxCell>
        <mxCell id="_YOE5mqV0CH9EQmjLfuh-1042" value="45" style="shape=partialRectangle;whiteSpace=wrap;html=1;top=0;bottom=0;fillColor=none;container=0;fontFamily=Times New Roman;fontSize=20;" vertex="1" parent="1">
          <mxGeometry x="424.3021493741576" y="280.27084805767635" width="28.217313384178755" height="24.6225506978488" as="geometry" />
        </mxCell>
        <mxCell id="_YOE5mqV0CH9EQmjLfuh-1043" value="" style="shape=partialRectangle;whiteSpace=wrap;html=1;top=0;bottom=0;fillColor=none;container=0;fontFamily=Times New Roman;fontSize=20;" vertex="1" parent="1">
          <mxGeometry x="458.86835826977654" y="280.27084805767635" width="28.217313384178755" height="24.6225506978488" as="geometry" />
        </mxCell>
        <mxCell id="_YOE5mqV0CH9EQmjLfuh-1044" value="" style="endArrow=none;html=1;rounded=0;exitX=0;exitY=0;exitDx=0;exitDy=0;entryX=1;entryY=0;entryDx=0;entryDy=0;fontFamily=Times New Roman;fontSize=20;" edge="1" parent="1">
          <mxGeometry width="50" height="50" relative="1" as="geometry">
            <mxPoint x="345.99910473306153" y="280.27084805767635" as="sourcePoint" />
            <mxPoint x="494.14" y="280.27084805767635" as="targetPoint" />
          </mxGeometry>
        </mxCell>
        <mxCell id="_YOE5mqV0CH9EQmjLfuh-1045" value="" style="endArrow=none;html=1;rounded=0;exitX=0;exitY=1;exitDx=0;exitDy=0;fontFamily=Times New Roman;fontSize=20;" edge="1" parent="1">
          <mxGeometry width="50" height="50" relative="1" as="geometry">
            <mxPoint x="345.99910473306153" y="304.89339875552514" as="sourcePoint" />
            <mxPoint x="494.14" y="304.89339875552514" as="targetPoint" />
          </mxGeometry>
        </mxCell>
        <mxCell id="_YOE5mqV0CH9EQmjLfuh-1046" value="" style="endArrow=none;html=1;rounded=0;fontFamily=Times New Roman;fontSize=20;" edge="1" parent="1">
          <mxGeometry width="50" height="50" relative="1" as="geometry">
            <mxPoint x="345.99910473306153" y="280.27084805767635" as="sourcePoint" />
            <mxPoint x="345.99910473306153" y="305.16162251845066" as="targetPoint" />
          </mxGeometry>
        </mxCell>
        <mxCell id="_YOE5mqV0CH9EQmjLfuh-1052" value="" style="endArrow=classic;html=1;rounded=0;entryX=0.5;entryY=0;entryDx=0;entryDy=0;fontFamily=Times New Roman;fontSize=11;" edge="1" parent="1">
          <mxGeometry width="50" height="50" relative="1" as="geometry">
            <mxPoint x="349.5262689060838" y="305.16162251845066" as="sourcePoint" />
            <mxPoint x="349.7449530848112" y="325.17769323187827" as="targetPoint" />
          </mxGeometry>
        </mxCell>
        <mxCell id="_YOE5mqV0CH9EQmjLfuh-1056" value="" style="endArrow=classic;html=1;rounded=0;entryX=0.5;entryY=0;entryDx=0;entryDy=0;fontFamily=Times New Roman;fontSize=11;" edge="1" parent="1">
          <mxGeometry width="50" height="50" relative="1" as="geometry">
            <mxPoint x="384.4169769056209" y="305.16162251845066" as="sourcePoint" />
            <mxPoint x="384.63566108434827" y="325.17769323187827" as="targetPoint" />
          </mxGeometry>
        </mxCell>
        <mxCell id="_YOE5mqV0CH9EQmjLfuh-1060" value="" style="endArrow=classic;html=1;rounded=0;entryX=0.5;entryY=0;entryDx=0;entryDy=0;fontFamily=Times New Roman;fontSize=11;" edge="1" parent="1">
          <mxGeometry width="50" height="50" relative="1" as="geometry">
            <mxPoint x="420.7749852011352" y="305.16162251845066" as="sourcePoint" />
            <mxPoint x="420.9936693798626" y="325.17769323187827" as="targetPoint" />
          </mxGeometry>
        </mxCell>
        <mxCell id="_YOE5mqV0CH9EQmjLfuh-1100" value="&lt;font style=&quot;font-size: 20px;&quot;&gt;53&lt;/font&gt;" style="shape=partialRectangle;whiteSpace=wrap;html=1;top=0;bottom=0;fillColor=none;container=0;fontFamily=Times New Roman;fontSize=20;" vertex="1" parent="1">
          <mxGeometry x="517.9134330791062" y="280.3208480576763" width="28.217313384178755" height="24.6225506978488" as="geometry" />
        </mxCell>
        <mxCell id="_YOE5mqV0CH9EQmjLfuh-1101" value="&lt;font style=&quot;font-size: 20px;&quot;&gt;59&lt;/font&gt;" style="shape=partialRectangle;whiteSpace=wrap;html=1;top=0;bottom=0;fillColor=none;container=0;fontFamily=Times New Roman;fontSize=20;" vertex="1" parent="1">
          <mxGeometry x="553.1850748093296" y="280.3208480576763" width="28.217313384178755" height="24.6225506978488" as="geometry" />
        </mxCell>
        <mxCell id="_YOE5mqV0CH9EQmjLfuh-1102" value="" style="shape=partialRectangle;whiteSpace=wrap;html=1;top=0;bottom=0;fillColor=none;container=0;fontFamily=Times New Roman;fontSize=20;" vertex="1" parent="1">
          <mxGeometry x="589.1621493741576" y="280.3208480576763" width="28.217313384178755" height="24.6225506978488" as="geometry" />
        </mxCell>
        <mxCell id="_YOE5mqV0CH9EQmjLfuh-1103" value="" style="shape=partialRectangle;whiteSpace=wrap;html=1;top=0;bottom=0;fillColor=none;container=0;fontFamily=Times New Roman;fontSize=20;" vertex="1" parent="1">
          <mxGeometry x="623.7283582697765" y="280.3208480576763" width="28.217313384178755" height="24.6225506978488" as="geometry" />
        </mxCell>
        <mxCell id="_YOE5mqV0CH9EQmjLfuh-1104" value="" style="endArrow=none;html=1;rounded=0;exitX=0;exitY=0;exitDx=0;exitDy=0;entryX=1;entryY=0;entryDx=0;entryDy=0;fontFamily=Times New Roman;fontSize=20;" edge="1" parent="1">
          <mxGeometry width="50" height="50" relative="1" as="geometry">
            <mxPoint x="510.8591047330615" y="280.3208480576763" as="sourcePoint" />
            <mxPoint x="659" y="280.3208480576763" as="targetPoint" />
          </mxGeometry>
        </mxCell>
        <mxCell id="_YOE5mqV0CH9EQmjLfuh-1105" value="" style="endArrow=none;html=1;rounded=0;exitX=0;exitY=1;exitDx=0;exitDy=0;fontFamily=Times New Roman;fontSize=20;" edge="1" parent="1">
          <mxGeometry width="50" height="50" relative="1" as="geometry">
            <mxPoint x="510.8591047330615" y="304.9433987555251" as="sourcePoint" />
            <mxPoint x="659" y="304.9433987555251" as="targetPoint" />
          </mxGeometry>
        </mxCell>
        <mxCell id="_YOE5mqV0CH9EQmjLfuh-1106" value="" style="endArrow=none;html=1;rounded=0;fontFamily=Times New Roman;fontSize=20;" edge="1" parent="1">
          <mxGeometry width="50" height="50" relative="1" as="geometry">
            <mxPoint x="510.8591047330615" y="280.3208480576763" as="sourcePoint" />
            <mxPoint x="510.8591047330615" y="305.2116225184506" as="targetPoint" />
          </mxGeometry>
        </mxCell>
        <mxCell id="_YOE5mqV0CH9EQmjLfuh-1107" value="" style="endArrow=none;html=1;rounded=0;fontFamily=Times New Roman;fontSize=20;" edge="1" parent="1">
          <mxGeometry width="50" height="50" relative="1" as="geometry">
            <mxPoint x="659" y="280.04999999999995" as="sourcePoint" />
            <mxPoint x="659" y="304.9407744607744" as="targetPoint" />
          </mxGeometry>
        </mxCell>
        <mxCell id="_YOE5mqV0CH9EQmjLfuh-1130" value="&lt;font style=&quot;font-size: 20px;&quot;&gt;68&lt;/font&gt;" style="shape=partialRectangle;whiteSpace=wrap;html=1;top=0;bottom=0;fillColor=none;container=0;fontFamily=Times New Roman;fontSize=20;" vertex="1" parent="1">
          <mxGeometry x="678.9134330791062" y="280.27084805767635" width="28.217313384178755" height="24.6225506978488" as="geometry" />
        </mxCell>
        <mxCell id="_YOE5mqV0CH9EQmjLfuh-1131" value="&lt;font style=&quot;font-size: 20px;&quot;&gt;77&lt;/font&gt;" style="shape=partialRectangle;whiteSpace=wrap;html=1;top=0;bottom=0;fillColor=none;container=0;fontFamily=Times New Roman;fontSize=20;" vertex="1" parent="1">
          <mxGeometry x="714.1850748093296" y="280.27084805767635" width="28.217313384178755" height="24.6225506978488" as="geometry" />
        </mxCell>
        <mxCell id="_YOE5mqV0CH9EQmjLfuh-1132" value="" style="shape=partialRectangle;whiteSpace=wrap;html=1;top=0;bottom=0;fillColor=none;container=0;fontFamily=Times New Roman;fontSize=20;" vertex="1" parent="1">
          <mxGeometry x="750.1621493741576" y="280.27084805767635" width="28.217313384178755" height="24.6225506978488" as="geometry" />
        </mxCell>
        <mxCell id="_YOE5mqV0CH9EQmjLfuh-1133" value="" style="shape=partialRectangle;whiteSpace=wrap;html=1;top=0;bottom=0;fillColor=none;container=0;fontFamily=Times New Roman;fontSize=20;" vertex="1" parent="1">
          <mxGeometry x="784.7283582697765" y="280.27084805767635" width="28.217313384178755" height="24.6225506978488" as="geometry" />
        </mxCell>
        <mxCell id="_YOE5mqV0CH9EQmjLfuh-1134" value="" style="endArrow=none;html=1;rounded=0;exitX=0;exitY=0;exitDx=0;exitDy=0;entryX=1;entryY=0;entryDx=0;entryDy=0;fontFamily=Times New Roman;fontSize=20;" edge="1" parent="1">
          <mxGeometry width="50" height="50" relative="1" as="geometry">
            <mxPoint x="671.8591047330615" y="280.27084805767635" as="sourcePoint" />
            <mxPoint x="820" y="280.27084805767635" as="targetPoint" />
          </mxGeometry>
        </mxCell>
        <mxCell id="_YOE5mqV0CH9EQmjLfuh-1135" value="" style="endArrow=none;html=1;rounded=0;exitX=0;exitY=1;exitDx=0;exitDy=0;fontFamily=Times New Roman;fontSize=20;" edge="1" parent="1">
          <mxGeometry width="50" height="50" relative="1" as="geometry">
            <mxPoint x="671.8591047330615" y="304.89339875552514" as="sourcePoint" />
            <mxPoint x="820" y="304.89339875552514" as="targetPoint" />
          </mxGeometry>
        </mxCell>
        <mxCell id="_YOE5mqV0CH9EQmjLfuh-1136" value="" style="endArrow=none;html=1;rounded=0;fontFamily=Times New Roman;fontSize=20;" edge="1" parent="1">
          <mxGeometry width="50" height="50" relative="1" as="geometry">
            <mxPoint x="671.8591047330615" y="280.27084805767635" as="sourcePoint" />
            <mxPoint x="671.8591047330615" y="305.16162251845066" as="targetPoint" />
          </mxGeometry>
        </mxCell>
        <mxCell id="_YOE5mqV0CH9EQmjLfuh-1137" value="" style="endArrow=none;html=1;rounded=0;fontFamily=Times New Roman;fontSize=20;" edge="1" parent="1">
          <mxGeometry width="50" height="50" relative="1" as="geometry">
            <mxPoint x="820" y="280" as="sourcePoint" />
            <mxPoint x="820" y="304.8907744607744" as="targetPoint" />
          </mxGeometry>
        </mxCell>
        <mxCell id="_YOE5mqV0CH9EQmjLfuh-981" value="&lt;font face=&quot;Times New Roman&quot; style=&quot;font-size: 20px;&quot;&gt;18&lt;/font&gt;" style="shape=partialRectangle;whiteSpace=wrap;html=1;top=0;bottom=0;fillColor=none;container=0;" vertex="1" parent="1">
          <mxGeometry x="351.0281690140846" y="170.38691784760036" width="35.53629469122427" height="35.17434978185138" as="geometry" />
        </mxCell>
        <mxCell id="_YOE5mqV0CH9EQmjLfuh-982" value="&lt;font style=&quot;font-size: 20px;&quot; face=&quot;Times New Roman&quot;&gt;42&lt;/font&gt;" style="shape=partialRectangle;whiteSpace=wrap;html=1;top=0;bottom=0;fillColor=none;container=0;" vertex="1" parent="1">
          <mxGeometry x="395.4485373781149" y="170.38691784760036" width="35.53629469122427" height="35.17434978185138" as="geometry" />
        </mxCell>
        <mxCell id="_YOE5mqV0CH9EQmjLfuh-983" value="&lt;font face=&quot;Times New Roman&quot; style=&quot;font-size: 20px;&quot;&gt;48&lt;/font&gt;" style="shape=partialRectangle;whiteSpace=wrap;html=1;top=0;bottom=0;fillColor=none;container=0;" vertex="1" parent="1">
          <mxGeometry x="440.7573131094258" y="170.38691784760036" width="35.53629469122427" height="35.17434978185138" as="geometry" />
        </mxCell>
        <mxCell id="_YOE5mqV0CH9EQmjLfuh-984" value="&lt;font style=&quot;font-size: 20px;&quot; face=&quot;Times New Roman&quot;&gt;62&lt;/font&gt;" style="shape=partialRectangle;whiteSpace=wrap;html=1;top=0;bottom=0;fillColor=none;container=0;" vertex="1" parent="1">
          <mxGeometry x="484.2892741061755" y="170.38691784760036" width="35.53629469122427" height="35.17434978185138" as="geometry" />
        </mxCell>
        <mxCell id="_YOE5mqV0CH9EQmjLfuh-985" value="" style="endArrow=none;html=1;rounded=0;exitX=0;exitY=0;exitDx=0;exitDy=0;entryX=1;entryY=0;entryDx=0;entryDy=0;" edge="1" parent="1">
          <mxGeometry width="50" height="50" relative="1" as="geometry">
            <mxPoint x="342.1440953412785" y="170.38691784760036" as="sourcePoint" />
            <mxPoint x="528.7096424702058" y="170.38691784760036" as="targetPoint" />
          </mxGeometry>
        </mxCell>
        <mxCell id="_YOE5mqV0CH9EQmjLfuh-986" value="" style="endArrow=none;html=1;rounded=0;exitX=0;exitY=1;exitDx=0;exitDy=0;" edge="1" parent="1">
          <mxGeometry width="50" height="50" relative="1" as="geometry">
            <mxPoint x="342.1440953412785" y="205.56126762945178" as="sourcePoint" />
            <mxPoint x="528.7096424702058" y="205.56126762945178" as="targetPoint" />
          </mxGeometry>
        </mxCell>
        <mxCell id="_YOE5mqV0CH9EQmjLfuh-987" value="" style="endArrow=none;html=1;rounded=0;" edge="1" parent="1">
          <mxGeometry width="50" height="50" relative="1" as="geometry">
            <mxPoint x="342.1440953412785" y="170.38691784760036" as="sourcePoint" />
            <mxPoint x="342.1440953412785" y="205.94443656157108" as="targetPoint" />
          </mxGeometry>
        </mxCell>
        <mxCell id="_YOE5mqV0CH9EQmjLfuh-988" value="" style="endArrow=none;html=1;rounded=0;" edge="1" parent="1">
          <mxGeometry width="50" height="50" relative="1" as="geometry">
            <mxPoint x="528.7096424702058" y="170" as="sourcePoint" />
            <mxPoint x="528.7096424702058" y="205.5575187139707" as="targetPoint" />
          </mxGeometry>
        </mxCell>
        <mxCell id="_YOE5mqV0CH9EQmjLfuh-875" value="" style="endArrow=classic;html=1;rounded=0;exitX=1;exitY=0.5;exitDx=0;exitDy=0;fontFamily=Times New Roman;fontSize=11.5;entryX=0;entryY=0.25;entryDx=0;entryDy=0;" edge="1" parent="1" target="_YOE5mqV0CH9EQmjLfuh-1014">
          <mxGeometry width="50" height="50" relative="1" as="geometry">
            <mxPoint x="95.26834944124043" y="360.1670072244119" as="sourcePoint" />
            <mxPoint x="174" y="362" as="targetPoint" />
          </mxGeometry>
        </mxCell>
        <mxCell id="_YOE5mqV0CH9EQmjLfuh-892" value="" style="endArrow=classic;html=1;rounded=0;entryX=0;entryY=0.75;entryDx=0;entryDy=0;exitX=1;exitY=0.75;exitDx=0;exitDy=0;fontFamily=Times New Roman;fontSize=11.5;" edge="1" parent="1">
          <mxGeometry width="50" height="50" relative="1" as="geometry">
            <mxPoint x="20.049565149407258" y="359.61444099715703" as="sourcePoint" />
            <mxPoint x="40.8427181932487" y="359.614440997157" as="targetPoint" />
          </mxGeometry>
        </mxCell>
        <mxCell id="_YOE5mqV0CH9EQmjLfuh-893" value="" style="endArrow=classic;html=1;rounded=0;entryX=0;entryY=0.75;entryDx=0;entryDy=0;exitX=1;exitY=0.75;exitDx=0;exitDy=0;fontFamily=Times New Roman;fontSize=11.5;" edge="1" parent="1">
          <mxGeometry width="50" height="50" relative="1" as="geometry">
            <mxPoint x="56.884427239249504" y="359.8347079468531" as="sourcePoint" />
            <mxPoint x="77.67758028309099" y="359.8347079468531" as="targetPoint" />
          </mxGeometry>
        </mxCell>
        <mxCell id="_YOE5mqV0CH9EQmjLfuh-894" value="" style="rounded=0;whiteSpace=wrap;html=1;rotation=90;container=0;fontFamily=Times New Roman;fontSize=11.5;" vertex="1" parent="1">
          <mxGeometry x="-25.655155563362985" y="355.4844356903547" width="75.36028497515441" height="16.011128619290652" as="geometry" />
        </mxCell>
        <mxCell id="_YOE5mqV0CH9EQmjLfuh-895" value="&lt;font style=&quot;font-size: 11.5px;&quot;&gt;1&lt;/font&gt;" style="text;html=1;strokeColor=none;fillColor=none;align=center;verticalAlign=middle;whiteSpace=wrap;rounded=0;container=0;fontFamily=Times New Roman;fontSize=11.5;" vertex="1" parent="1">
          <mxGeometry x="4.007856103406461" y="324.9053067428859" width="16.041709046000854" height="15.259182825500439" as="geometry" />
        </mxCell>
        <mxCell id="_YOE5mqV0CH9EQmjLfuh-896" value="&lt;font style=&quot;font-size: 11.5px;&quot;&gt;3&lt;/font&gt;" style="text;html=1;strokeColor=none;fillColor=none;align=center;verticalAlign=middle;whiteSpace=wrap;rounded=0;container=0;fontFamily=Times New Roman;fontSize=11.5;" vertex="1" parent="1">
          <mxGeometry x="4.007856103406461" y="338.5542622119871" width="16.041709046000854" height="15.927579086647292" as="geometry" />
        </mxCell>
        <mxCell id="_YOE5mqV0CH9EQmjLfuh-898" value="&lt;font style=&quot;font-size: 11.5px;&quot;&gt;5&lt;/font&gt;" style="text;html=1;strokeColor=none;fillColor=none;align=center;verticalAlign=middle;whiteSpace=wrap;rounded=0;container=0;fontFamily=Times New Roman;fontSize=11.5;" vertex="1" parent="1">
          <mxGeometry x="4.007856103406461" y="354.4818412986344" width="16.041709046000854" height="15.927579086647292" as="geometry" />
        </mxCell>
        <mxCell id="_YOE5mqV0CH9EQmjLfuh-899" value="" style="rounded=0;whiteSpace=wrap;html=1;rotation=90;container=0;fontFamily=Times New Roman;fontSize=11.5;" vertex="1" parent="1">
          <mxGeometry x="11.179706526479286" y="355.4844356903547" width="75.36028497515441" height="16.011128619290652" as="geometry" />
        </mxCell>
        <mxCell id="_YOE5mqV0CH9EQmjLfuh-900" value="&lt;font style=&quot;font-size: 11.5px;&quot;&gt;&lt;span style=&quot;font-size: 11.5px;&quot;&gt;8&lt;/span&gt;&lt;/font&gt;" style="text;html=1;strokeColor=none;fillColor=none;align=center;verticalAlign=middle;whiteSpace=wrap;rounded=0;container=0;fontFamily=Times New Roman;fontSize=11.5;" vertex="1" parent="1">
          <mxGeometry x="40.842718193248714" y="324.9053067428859" width="16.041709046000854" height="15.259182825500439" as="geometry" />
        </mxCell>
        <mxCell id="_YOE5mqV0CH9EQmjLfuh-901" value="&lt;font style=&quot;font-size: 11.5px;&quot;&gt;9&lt;/font&gt;" style="text;html=1;strokeColor=none;fillColor=none;align=center;verticalAlign=middle;whiteSpace=wrap;rounded=0;container=0;fontFamily=Times New Roman;fontSize=11.5;" vertex="1" parent="1">
          <mxGeometry x="40.842718193248714" y="338.5542622119871" width="16.041709046000854" height="15.927579086647292" as="geometry" />
        </mxCell>
        <mxCell id="_YOE5mqV0CH9EQmjLfuh-903" value="&lt;font style=&quot;font-size: 11.5px;&quot;&gt;&lt;span style=&quot;font-size: 11.5px;&quot;&gt;11&lt;/span&gt;&lt;/font&gt;" style="text;html=1;strokeColor=none;fillColor=none;align=center;verticalAlign=middle;whiteSpace=wrap;rounded=0;container=0;fontFamily=Times New Roman;fontSize=11.5;" vertex="1" parent="1">
          <mxGeometry x="40.842718193248714" y="353.0539038316389" width="16.041709046000854" height="15.190824116974056" as="geometry" />
        </mxCell>
        <mxCell id="_YOE5mqV0CH9EQmjLfuh-904" value="" style="rounded=0;whiteSpace=wrap;html=1;rotation=90;container=0;fontFamily=Times New Roman;fontSize=11.5;" vertex="1" parent="1">
          <mxGeometry x="49.56362872847018" y="355.4844356903547" width="75.36028497515441" height="16.011128619290652" as="geometry" />
        </mxCell>
        <mxCell id="_YOE5mqV0CH9EQmjLfuh-905" value="&lt;font style=&quot;font-size: 11.5px;&quot;&gt;15&lt;/font&gt;" style="text;html=1;strokeColor=none;fillColor=none;align=center;verticalAlign=middle;whiteSpace=wrap;rounded=0;container=0;fontFamily=Times New Roman;fontSize=11.5;" vertex="1" parent="1">
          <mxGeometry x="79.22664039523963" y="324.9053067428859" width="16.041709046000854" height="15.259182825500439" as="geometry" />
        </mxCell>
        <mxCell id="_YOE5mqV0CH9EQmjLfuh-906" value="&lt;font style=&quot;font-size: 11.5px;&quot;&gt;16&lt;/font&gt;" style="text;html=1;strokeColor=none;fillColor=none;align=center;verticalAlign=middle;whiteSpace=wrap;rounded=0;container=0;fontFamily=Times New Roman;fontSize=11.5;" vertex="1" parent="1">
          <mxGeometry x="79.22664039523963" y="338.5542622119871" width="16.041709046000854" height="15.927579086647292" as="geometry" />
        </mxCell>
        <mxCell id="_YOE5mqV0CH9EQmjLfuh-908" value="&lt;font style=&quot;font-size: 11.5px;&quot;&gt;19&lt;/font&gt;" style="text;html=1;strokeColor=none;fillColor=none;align=center;verticalAlign=middle;whiteSpace=wrap;rounded=0;container=0;fontFamily=Times New Roman;fontSize=11.5;" vertex="1" parent="1">
          <mxGeometry x="79.22664039523963" y="370.4094203852817" width="16.041709046000854" height="15.927579086647292" as="geometry" />
        </mxCell>
        <mxCell id="_YOE5mqV0CH9EQmjLfuh-909" value="&lt;font style=&quot;font-size: 11.5px;&quot;&gt;&lt;span style=&quot;font-size: 11.5px;&quot;&gt;18&lt;/span&gt;&lt;/font&gt;" style="text;html=1;strokeColor=none;fillColor=none;align=center;verticalAlign=middle;whiteSpace=wrap;rounded=0;container=0;fontFamily=Times New Roman;fontSize=11.5;" vertex="1" parent="1">
          <mxGeometry x="79.22664039523963" y="354.4818412986344" width="16.041709046000854" height="15.927579086647292" as="geometry" />
        </mxCell>
        <mxCell id="_YOE5mqV0CH9EQmjLfuh-910" value="&lt;font style=&quot;font-size: 11.5px;&quot;&gt;21&lt;/font&gt;" style="text;html=1;strokeColor=none;fillColor=none;align=center;verticalAlign=middle;whiteSpace=wrap;rounded=0;container=0;fontFamily=Times New Roman;fontSize=11.5;" vertex="1" parent="1">
          <mxGeometry x="79.22664039523963" y="386.33699947192895" width="16.041709046000854" height="15.927579086647292" as="geometry" />
        </mxCell>
        <mxCell id="_YOE5mqV0CH9EQmjLfuh-989" value="&lt;font style=&quot;font-size: 11.5px;&quot;&gt;&lt;span style=&quot;font-size: 11.5px;&quot;&gt;7&lt;/span&gt;&lt;/font&gt;" style="text;html=1;strokeColor=none;fillColor=none;align=center;verticalAlign=middle;whiteSpace=wrap;rounded=0;container=0;fontFamily=Times New Roman;fontSize=11.5;" vertex="1" parent="1">
          <mxGeometry x="4" y="372.15993032830147" width="16.041709046000854" height="15.190824116974056" as="geometry" />
        </mxCell>
        <mxCell id="_YOE5mqV0CH9EQmjLfuh-1010" value="" style="rounded=0;whiteSpace=wrap;html=1;rotation=90;container=0;fontFamily=Times New Roman;fontSize=11.5;" vertex="1" parent="1">
          <mxGeometry x="151.09040053886537" y="355.5379880330209" width="72.96027589951254" height="16.009859375640875" as="geometry" />
        </mxCell>
        <mxCell id="_YOE5mqV0CH9EQmjLfuh-1015" value="" style="rounded=0;whiteSpace=wrap;html=1;rotation=90;container=0;fontFamily=Times New Roman;fontSize=11.5;" vertex="1" parent="1">
          <mxGeometry x="186.75217784877637" y="355.5379880330209" width="72.96027589951254" height="16.009859375640875" as="geometry" />
        </mxCell>
        <mxCell id="_YOE5mqV0CH9EQmjLfuh-1020" value="" style="rounded=0;whiteSpace=wrap;html=1;rotation=90;container=0;fontFamily=Times New Roman;fontSize=11.5;" vertex="1" parent="1">
          <mxGeometry x="223.9136821462453" y="355.5379880330209" width="72.96027589951254" height="16.009859375640875" as="geometry" />
        </mxCell>
        <mxCell id="_YOE5mqV0CH9EQmjLfuh-999" value="" style="endArrow=classic;html=1;rounded=0;entryX=0;entryY=0.25;entryDx=0;entryDy=0;exitX=1;exitY=0.5;exitDx=0;exitDy=0;fontFamily=Times New Roman;fontSize=11.5;" edge="1" parent="1" target="_YOE5mqV0CH9EQmjLfuh-1319">
          <mxGeometry width="50" height="50" relative="1" as="geometry">
            <mxPoint x="268.16283850510564" y="360.22018836750027" as="sourcePoint" />
            <mxPoint x="288.1712153823807" y="360.22018836750027" as="targetPoint" />
          </mxGeometry>
        </mxCell>
        <mxCell id="_YOE5mqV0CH9EQmjLfuh-1008" value="" style="endArrow=classic;html=1;rounded=0;entryX=0;entryY=0.75;entryDx=0;entryDy=0;exitX=1;exitY=0.75;exitDx=0;exitDy=0;fontFamily=Times New Roman;fontSize=11.5;" edge="1" parent="1">
          <mxGeometry width="50" height="50" relative="1" as="geometry">
            <mxPoint x="195.33955689772574" y="359.66766594360183" as="sourcePoint" />
            <mxPoint x="215.4705076153302" y="359.66766594360183" as="targetPoint" />
          </mxGeometry>
        </mxCell>
        <mxCell id="_YOE5mqV0CH9EQmjLfuh-1009" value="" style="endArrow=classic;html=1;rounded=0;entryX=0;entryY=0.75;entryDx=0;entryDy=0;exitX=1;exitY=0.75;exitDx=0;exitDy=0;fontFamily=Times New Roman;fontSize=11.5;" edge="1" parent="1">
          <mxGeometry width="50" height="50" relative="1" as="geometry">
            <mxPoint x="231.00133420763672" y="359.8879154321661" as="sourcePoint" />
            <mxPoint x="251.1322849252412" y="359.8879154321661" as="targetPoint" />
          </mxGeometry>
        </mxCell>
        <mxCell id="_YOE5mqV0CH9EQmjLfuh-1011" value="&lt;font style=&quot;font-size: 11.5px;&quot;&gt;19&lt;/font&gt;" style="text;html=1;strokeColor=none;fillColor=none;align=center;verticalAlign=middle;whiteSpace=wrap;rounded=0;container=0;fontFamily=Times New Roman;fontSize=11.5;" vertex="1" parent="1">
          <mxGeometry x="179.80873030541923" y="324.9612831723329" width="15.530826592306555" height="15.257973190541989" as="geometry" />
        </mxCell>
        <mxCell id="_YOE5mqV0CH9EQmjLfuh-1012" value="&lt;font style=&quot;font-size: 11.5px;&quot;&gt;20&lt;/font&gt;" style="text;html=1;strokeColor=none;fillColor=none;align=center;verticalAlign=middle;whiteSpace=wrap;rounded=0;container=0;fontFamily=Times New Roman;fontSize=11.5;" vertex="1" parent="1">
          <mxGeometry x="179.80873030541923" y="338.60915665337023" width="15.530826592306555" height="15.92631646618544" as="geometry" />
        </mxCell>
        <mxCell id="_YOE5mqV0CH9EQmjLfuh-1014" value="&lt;font style=&quot;font-size: 11.5px;&quot;&gt;21&lt;/font&gt;" style="text;html=1;strokeColor=none;fillColor=none;align=center;verticalAlign=middle;whiteSpace=wrap;rounded=0;container=0;fontFamily=Times New Roman;fontSize=11.5;" vertex="1" parent="1">
          <mxGeometry x="179.80873030541923" y="354.5354731195556" width="15.530826592306555" height="15.92631646618544" as="geometry" />
        </mxCell>
        <mxCell id="_YOE5mqV0CH9EQmjLfuh-1016" value="&lt;font style=&quot;font-size: 11.5px;&quot;&gt;&lt;span style=&quot;font-size: 11.5px;&quot;&gt;23&lt;/span&gt;&lt;/font&gt;" style="text;html=1;strokeColor=none;fillColor=none;align=center;verticalAlign=middle;whiteSpace=wrap;rounded=0;container=0;fontFamily=Times New Roman;fontSize=11.5;" vertex="1" parent="1">
          <mxGeometry x="215.47050761533023" y="324.9612831723329" width="15.530826592306555" height="15.257973190541989" as="geometry" />
        </mxCell>
        <mxCell id="_YOE5mqV0CH9EQmjLfuh-1017" value="&lt;font style=&quot;font-size: 11.5px;&quot;&gt;&lt;span style=&quot;font-size: 11.5px;&quot;&gt;25&lt;/span&gt;&lt;/font&gt;" style="text;html=1;strokeColor=none;fillColor=none;align=center;verticalAlign=middle;whiteSpace=wrap;rounded=0;container=0;fontFamily=Times New Roman;fontSize=11.5;" vertex="1" parent="1">
          <mxGeometry x="215.47050761533023" y="338.60915665337023" width="15.530826592306555" height="15.92631646618544" as="geometry" />
        </mxCell>
        <mxCell id="_YOE5mqV0CH9EQmjLfuh-1019" value="&lt;font style=&quot;font-size: 11.5px;&quot;&gt;&lt;span style=&quot;font-size: 11.5px;&quot;&gt;26&lt;/span&gt;&lt;/font&gt;" style="text;html=1;strokeColor=none;fillColor=none;align=center;verticalAlign=middle;whiteSpace=wrap;rounded=0;container=0;fontFamily=Times New Roman;fontSize=11.5;" vertex="1" parent="1">
          <mxGeometry x="215.47050761533023" y="353.1076488488629" width="15.530826592306555" height="15.189619900987545" as="geometry" />
        </mxCell>
        <mxCell id="_YOE5mqV0CH9EQmjLfuh-1021" value="&lt;font style=&quot;font-size: 11.5px;&quot;&gt;30&lt;/font&gt;" style="text;html=1;strokeColor=none;fillColor=none;align=center;verticalAlign=middle;whiteSpace=wrap;rounded=0;container=0;fontFamily=Times New Roman;fontSize=11.5;" vertex="1" parent="1">
          <mxGeometry x="252.63201191279916" y="324.9612831723329" width="15.530826592306555" height="15.257973190541989" as="geometry" />
        </mxCell>
        <mxCell id="_YOE5mqV0CH9EQmjLfuh-1022" value="&lt;font style=&quot;font-size: 11.5px;&quot;&gt;31&lt;/font&gt;" style="text;html=1;strokeColor=none;fillColor=none;align=center;verticalAlign=middle;whiteSpace=wrap;rounded=0;container=0;fontFamily=Times New Roman;fontSize=11.5;" vertex="1" parent="1">
          <mxGeometry x="252.63201191279916" y="338.60915665337023" width="15.530826592306555" height="15.92631646618544" as="geometry" />
        </mxCell>
        <mxCell id="_YOE5mqV0CH9EQmjLfuh-1030" value="&lt;font style=&quot;font-size: 11.5px;&quot;&gt;27&lt;/font&gt;" style="text;html=1;strokeColor=none;fillColor=none;align=center;verticalAlign=middle;whiteSpace=wrap;rounded=0;container=0;fontFamily=Times New Roman;fontSize=11.5;" vertex="1" parent="1">
          <mxGeometry x="215.4661232645187" y="369.24753976186975" width="15.530826592306555" height="15.92631646618544" as="geometry" />
        </mxCell>
        <mxCell id="_YOE5mqV0CH9EQmjLfuh-1035" value="" style="rounded=0;whiteSpace=wrap;html=1;rotation=90;container=0;fontFamily=Times New Roman;fontSize=11.5;" vertex="1" parent="1">
          <mxGeometry x="312.85782239016345" y="354.4776198278711" width="72.96027589951254" height="16.009859375640875" as="geometry" />
        </mxCell>
        <mxCell id="_YOE5mqV0CH9EQmjLfuh-1036" value="" style="rounded=0;whiteSpace=wrap;html=1;rotation=90;container=0;fontFamily=Times New Roman;fontSize=11.5;" vertex="1" parent="1">
          <mxGeometry x="348.51959970007437" y="354.4776198278711" width="72.96027589951254" height="16.009859375640875" as="geometry" />
        </mxCell>
        <mxCell id="_YOE5mqV0CH9EQmjLfuh-1037" value="" style="rounded=0;whiteSpace=wrap;html=1;rotation=90;container=0;fontFamily=Times New Roman;fontSize=11.5;" vertex="1" parent="1">
          <mxGeometry x="385.6811039975432" y="354.4776198278711" width="72.96027589951254" height="16.009859375640875" as="geometry" />
        </mxCell>
        <mxCell id="_YOE5mqV0CH9EQmjLfuh-1039" value="" style="endArrow=classic;html=1;rounded=0;entryX=0;entryY=0.5;entryDx=0;entryDy=0;exitX=1;exitY=0.5;exitDx=0;exitDy=0;fontFamily=Times New Roman;fontSize=11.5;" edge="1" parent="1">
          <mxGeometry width="50" height="50" relative="1" as="geometry">
            <mxPoint x="432.9302603564037" y="359.15982016235046" as="sourcePoint" />
            <mxPoint x="452.9386372336787" y="359.15982016235046" as="targetPoint" />
          </mxGeometry>
        </mxCell>
        <mxCell id="_YOE5mqV0CH9EQmjLfuh-1048" value="" style="endArrow=classic;html=1;rounded=0;entryX=0;entryY=0.75;entryDx=0;entryDy=0;exitX=1;exitY=0.75;exitDx=0;exitDy=0;fontFamily=Times New Roman;fontSize=11.5;" edge="1" parent="1">
          <mxGeometry width="50" height="50" relative="1" as="geometry">
            <mxPoint x="357.1069787490238" y="358.60729773845196" as="sourcePoint" />
            <mxPoint x="377.23792946662815" y="358.60729773845196" as="targetPoint" />
          </mxGeometry>
        </mxCell>
        <mxCell id="_YOE5mqV0CH9EQmjLfuh-1049" value="" style="endArrow=classic;html=1;rounded=0;entryX=0;entryY=0.75;entryDx=0;entryDy=0;exitX=1;exitY=0.75;exitDx=0;exitDy=0;fontFamily=Times New Roman;fontSize=11.5;" edge="1" parent="1">
          <mxGeometry width="50" height="50" relative="1" as="geometry">
            <mxPoint x="392.7687560589347" y="358.8275472270163" as="sourcePoint" />
            <mxPoint x="412.8997067765393" y="358.8275472270163" as="targetPoint" />
          </mxGeometry>
        </mxCell>
        <mxCell id="_YOE5mqV0CH9EQmjLfuh-1050" value="&lt;font style=&quot;font-size: 11.5px;&quot;&gt;35&lt;/font&gt;" style="text;html=1;strokeColor=none;fillColor=none;align=center;verticalAlign=middle;whiteSpace=wrap;rounded=0;container=0;fontFamily=Times New Roman;fontSize=11.5;" vertex="1" parent="1">
          <mxGeometry x="341.58" y="325.90000000000003" width="15.53" height="15.08" as="geometry" />
        </mxCell>
        <mxCell id="_YOE5mqV0CH9EQmjLfuh-1051" value="&lt;font style=&quot;font-size: 11.5px;&quot;&gt;37&lt;/font&gt;" style="text;html=1;strokeColor=none;fillColor=none;align=center;verticalAlign=middle;whiteSpace=wrap;rounded=0;container=0;fontFamily=Times New Roman;fontSize=11.5;" vertex="1" parent="1">
          <mxGeometry x="341.5761521567173" y="339.54878844822036" width="15.530826592306555" height="15.92631646618544" as="geometry" />
        </mxCell>
        <mxCell id="_YOE5mqV0CH9EQmjLfuh-1054" value="&lt;font style=&quot;font-size: 11.5px;&quot;&gt;&lt;span style=&quot;font-size: 11.5px;&quot;&gt;40&lt;/span&gt;&lt;/font&gt;" style="text;html=1;strokeColor=none;fillColor=none;align=center;verticalAlign=middle;whiteSpace=wrap;rounded=0;container=0;fontFamily=Times New Roman;fontSize=11.5;" vertex="1" parent="1">
          <mxGeometry x="377.2379294666282" y="323.9009149671831" width="15.530826592306555" height="15.257973190541989" as="geometry" />
        </mxCell>
        <mxCell id="_YOE5mqV0CH9EQmjLfuh-1055" value="&lt;font style=&quot;font-size: 11.5px;&quot;&gt;&lt;span style=&quot;font-size: 11.5px;&quot;&gt;41&lt;/span&gt;&lt;/font&gt;" style="text;html=1;strokeColor=none;fillColor=none;align=center;verticalAlign=middle;whiteSpace=wrap;rounded=0;container=0;fontFamily=Times New Roman;fontSize=11.5;" vertex="1" parent="1">
          <mxGeometry x="377.2379294666282" y="337.54878844822036" width="15.530826592306555" height="15.92631646618544" as="geometry" />
        </mxCell>
        <mxCell id="_YOE5mqV0CH9EQmjLfuh-1057" value="&lt;font style=&quot;font-size: 11.5px;&quot;&gt;&lt;span style=&quot;font-size: 11.5px;&quot;&gt;42&lt;/span&gt;&lt;/font&gt;" style="text;html=1;strokeColor=none;fillColor=none;align=center;verticalAlign=middle;whiteSpace=wrap;rounded=0;container=0;fontFamily=Times New Roman;fontSize=11.5;" vertex="1" parent="1">
          <mxGeometry x="377.2379294666282" y="352.047280643713" width="15.530826592306555" height="15.189619900987545" as="geometry" />
        </mxCell>
        <mxCell id="_YOE5mqV0CH9EQmjLfuh-1058" value="&lt;font style=&quot;font-size: 11.5px;&quot;&gt;43&lt;/font&gt;" style="text;html=1;strokeColor=none;fillColor=none;align=center;verticalAlign=middle;whiteSpace=wrap;rounded=0;container=0;fontFamily=Times New Roman;fontSize=11.5;" vertex="1" parent="1">
          <mxGeometry x="414.399433764097" y="325.9009149671831" width="15.530826592306555" height="15.257973190541989" as="geometry" />
        </mxCell>
        <mxCell id="_YOE5mqV0CH9EQmjLfuh-1059" value="&lt;font style=&quot;font-size: 11.5px;&quot;&gt;44&lt;/font&gt;" style="text;html=1;strokeColor=none;fillColor=none;align=center;verticalAlign=middle;whiteSpace=wrap;rounded=0;container=0;fontFamily=Times New Roman;fontSize=11.5;" vertex="1" parent="1">
          <mxGeometry x="414.399433764097" y="339.54878844822036" width="15.530826592306555" height="15.92631646618544" as="geometry" />
        </mxCell>
        <mxCell id="_YOE5mqV0CH9EQmjLfuh-1062" value="&lt;font style=&quot;font-size: 11.5px;&quot;&gt;&lt;span style=&quot;font-size: 11.5px;&quot;&gt;45&lt;/span&gt;&lt;/font&gt;" style="text;html=1;strokeColor=none;fillColor=none;align=center;verticalAlign=middle;whiteSpace=wrap;rounded=0;container=0;fontFamily=Times New Roman;fontSize=11.5;" vertex="1" parent="1">
          <mxGeometry x="414.399433764097" y="355.47510491440573" width="15.530826592306555" height="15.92631646618544" as="geometry" />
        </mxCell>
        <mxCell id="_YOE5mqV0CH9EQmjLfuh-1319" value="&lt;font style=&quot;font-size: 11.5px;&quot;&gt;38&lt;/font&gt;" style="text;html=1;strokeColor=none;fillColor=none;align=center;verticalAlign=middle;whiteSpace=wrap;rounded=0;container=0;fontFamily=Times New Roman;fontSize=11.5;" vertex="1" parent="1">
          <mxGeometry x="341.5835451158168" y="356.2371715567199" width="15.530826592306555" height="15.92631646618544" as="geometry" />
        </mxCell>
        <mxCell id="_YOE5mqV0CH9EQmjLfuh-1320" value="" style="endArrow=classic;html=1;rounded=0;entryX=0.5;entryY=0;entryDx=0;entryDy=0;fontFamily=Times New Roman;fontSize=11;" edge="1" parent="1">
          <mxGeometry width="50" height="50" relative="1" as="geometry">
            <mxPoint x="456.13498520113524" y="304.9416225184507" as="sourcePoint" />
            <mxPoint x="456.3536693798626" y="324.95769323187824" as="targetPoint" />
          </mxGeometry>
        </mxCell>
        <mxCell id="_YOE5mqV0CH9EQmjLfuh-1321" value="" style="rounded=0;whiteSpace=wrap;html=1;rotation=90;container=0;fontFamily=Times New Roman;fontSize=11.5;" vertex="1" parent="1">
          <mxGeometry x="421.0411039975432" y="354.25761982787105" width="72.96027589951254" height="16.009859375640875" as="geometry" />
        </mxCell>
        <mxCell id="_YOE5mqV0CH9EQmjLfuh-1322" value="&lt;font style=&quot;font-size: 11.5px;&quot;&gt;46&lt;/font&gt;" style="text;html=1;strokeColor=none;fillColor=none;align=center;verticalAlign=middle;whiteSpace=wrap;rounded=0;container=0;fontFamily=Times New Roman;fontSize=11.5;" vertex="1" parent="1">
          <mxGeometry x="449.759433764097" y="325.68091496718307" width="15.530826592306555" height="15.257973190541989" as="geometry" />
        </mxCell>
        <mxCell id="_YOE5mqV0CH9EQmjLfuh-1323" value="&lt;font style=&quot;font-size: 11.5px;&quot;&gt;47&lt;/font&gt;" style="text;html=1;strokeColor=none;fillColor=none;align=center;verticalAlign=middle;whiteSpace=wrap;rounded=0;container=0;fontFamily=Times New Roman;fontSize=11.5;" vertex="1" parent="1">
          <mxGeometry x="449.759433764097" y="339.3287884482204" width="15.530826592306555" height="15.92631646618544" as="geometry" />
        </mxCell>
        <mxCell id="_YOE5mqV0CH9EQmjLfuh-1324" value="48" style="text;html=1;strokeColor=none;fillColor=none;align=center;verticalAlign=middle;whiteSpace=wrap;rounded=0;container=0;fontFamily=Times New Roman;fontSize=11.5;" vertex="1" parent="1">
          <mxGeometry x="449.759433764097" y="355.2551049144057" width="15.530826592306555" height="15.92631646618544" as="geometry" />
        </mxCell>
        <mxCell id="_YOE5mqV0CH9EQmjLfuh-1335" value="" style="endArrow=classic;html=1;rounded=0;entryX=0.5;entryY=0;entryDx=0;entryDy=0;fontFamily=Times New Roman;fontSize=11;" edge="1" parent="1">
          <mxGeometry width="50" height="50" relative="1" as="geometry">
            <mxPoint x="514.3969769056209" y="305.1616225184507" as="sourcePoint" />
            <mxPoint x="514.6156610843483" y="325.17769323187827" as="targetPoint" />
          </mxGeometry>
        </mxCell>
        <mxCell id="_YOE5mqV0CH9EQmjLfuh-1336" value="" style="endArrow=classic;html=1;rounded=0;entryX=0.5;entryY=0;entryDx=0;entryDy=0;fontFamily=Times New Roman;fontSize=11;" edge="1" parent="1">
          <mxGeometry width="50" height="50" relative="1" as="geometry">
            <mxPoint x="550.7549852011352" y="305.1616225184507" as="sourcePoint" />
            <mxPoint x="550.9736693798626" y="325.17769323187827" as="targetPoint" />
          </mxGeometry>
        </mxCell>
        <mxCell id="_YOE5mqV0CH9EQmjLfuh-1337" value="" style="rounded=0;whiteSpace=wrap;html=1;rotation=90;container=0;fontFamily=Times New Roman;fontSize=11.5;" vertex="1" parent="1">
          <mxGeometry x="478.4995997000744" y="354.4776198278711" width="72.96027589951254" height="16.009859375640875" as="geometry" />
        </mxCell>
        <mxCell id="_YOE5mqV0CH9EQmjLfuh-1338" value="" style="rounded=0;whiteSpace=wrap;html=1;rotation=90;container=0;fontFamily=Times New Roman;fontSize=11.5;" vertex="1" parent="1">
          <mxGeometry x="515.6611039975433" y="354.4776198278711" width="72.96027589951254" height="16.009859375640875" as="geometry" />
        </mxCell>
        <mxCell id="_YOE5mqV0CH9EQmjLfuh-1339" value="" style="endArrow=classic;html=1;rounded=0;entryX=0;entryY=0.5;entryDx=0;entryDy=0;exitX=1;exitY=0.5;exitDx=0;exitDy=0;fontFamily=Times New Roman;fontSize=11.5;" edge="1" parent="1">
          <mxGeometry width="50" height="50" relative="1" as="geometry">
            <mxPoint x="562.9102603564038" y="359.15982016235046" as="sourcePoint" />
            <mxPoint x="582.9186372336787" y="359.15982016235046" as="targetPoint" />
          </mxGeometry>
        </mxCell>
        <mxCell id="_YOE5mqV0CH9EQmjLfuh-1340" value="" style="endArrow=classic;html=1;rounded=0;entryX=0;entryY=0.75;entryDx=0;entryDy=0;exitX=1;exitY=0.25;exitDx=0;exitDy=0;fontFamily=Times New Roman;fontSize=11.5;" edge="1" parent="1" source="_YOE5mqV0CH9EQmjLfuh-1324">
          <mxGeometry width="50" height="50" relative="1" as="geometry">
            <mxPoint x="487.08697874902384" y="358.60729773845196" as="sourcePoint" />
            <mxPoint x="507.2179294666282" y="358.60729773845196" as="targetPoint" />
          </mxGeometry>
        </mxCell>
        <mxCell id="_YOE5mqV0CH9EQmjLfuh-1341" value="" style="endArrow=classic;html=1;rounded=0;entryX=0;entryY=0.75;entryDx=0;entryDy=0;exitX=1;exitY=0.75;exitDx=0;exitDy=0;fontFamily=Times New Roman;fontSize=11.5;" edge="1" parent="1">
          <mxGeometry width="50" height="50" relative="1" as="geometry">
            <mxPoint x="522.7487560589348" y="358.8275472270162" as="sourcePoint" />
            <mxPoint x="542.8797067765393" y="358.8275472270162" as="targetPoint" />
          </mxGeometry>
        </mxCell>
        <mxCell id="_YOE5mqV0CH9EQmjLfuh-1342" value="&lt;font style=&quot;font-size: 11.5px;&quot;&gt;&lt;span style=&quot;font-size: 11.5px;&quot;&gt;50&lt;/span&gt;&lt;/font&gt;" style="text;html=1;strokeColor=none;fillColor=none;align=center;verticalAlign=middle;whiteSpace=wrap;rounded=0;container=0;fontFamily=Times New Roman;fontSize=11.5;" vertex="1" parent="1">
          <mxGeometry x="507.2179294666282" y="325.9009149671831" width="15.530826592306555" height="15.257973190541989" as="geometry" />
        </mxCell>
        <mxCell id="_YOE5mqV0CH9EQmjLfuh-1343" value="&lt;font style=&quot;font-size: 11.5px;&quot;&gt;&lt;span style=&quot;font-size: 11.5px;&quot;&gt;51&lt;/span&gt;&lt;/font&gt;" style="text;html=1;strokeColor=none;fillColor=none;align=center;verticalAlign=middle;whiteSpace=wrap;rounded=0;container=0;fontFamily=Times New Roman;fontSize=11.5;" vertex="1" parent="1">
          <mxGeometry x="507.2179294666282" y="339.5487884482204" width="15.530826592306555" height="15.92631646618544" as="geometry" />
        </mxCell>
        <mxCell id="_YOE5mqV0CH9EQmjLfuh-1344" value="&lt;font style=&quot;font-size: 11.5px;&quot;&gt;&lt;span style=&quot;font-size: 11.5px;&quot;&gt;52&lt;/span&gt;&lt;/font&gt;" style="text;html=1;strokeColor=none;fillColor=none;align=center;verticalAlign=middle;whiteSpace=wrap;rounded=0;container=0;fontFamily=Times New Roman;fontSize=11.5;" vertex="1" parent="1">
          <mxGeometry x="507.2179294666282" y="354.04728064371307" width="15.530826592306555" height="15.189619900987545" as="geometry" />
        </mxCell>
        <mxCell id="_YOE5mqV0CH9EQmjLfuh-1345" value="&lt;font style=&quot;font-size: 11.5px;&quot;&gt;55&lt;/font&gt;" style="text;html=1;strokeColor=none;fillColor=none;align=center;verticalAlign=middle;whiteSpace=wrap;rounded=0;container=0;fontFamily=Times New Roman;fontSize=11.5;" vertex="1" parent="1">
          <mxGeometry x="544.379433764097" y="325.9009149671831" width="15.530826592306555" height="15.257973190541989" as="geometry" />
        </mxCell>
        <mxCell id="_YOE5mqV0CH9EQmjLfuh-1346" value="&lt;font style=&quot;font-size: 11.5px;&quot;&gt;57&lt;/font&gt;" style="text;html=1;strokeColor=none;fillColor=none;align=center;verticalAlign=middle;whiteSpace=wrap;rounded=0;container=0;fontFamily=Times New Roman;fontSize=11.5;" vertex="1" parent="1">
          <mxGeometry x="544.379433764097" y="339.5487884482204" width="15.530826592306555" height="15.92631646618544" as="geometry" />
        </mxCell>
        <mxCell id="_YOE5mqV0CH9EQmjLfuh-1347" value="&lt;font style=&quot;font-size: 11.5px;&quot;&gt;&lt;span style=&quot;font-size: 11.5px;&quot;&gt;59&lt;/span&gt;&lt;/font&gt;" style="text;html=1;strokeColor=none;fillColor=none;align=center;verticalAlign=middle;whiteSpace=wrap;rounded=0;container=0;fontFamily=Times New Roman;fontSize=11.5;" vertex="1" parent="1">
          <mxGeometry x="544.379433764097" y="355.47510491440573" width="15.530826592306555" height="15.92631646618544" as="geometry" />
        </mxCell>
        <mxCell id="_YOE5mqV0CH9EQmjLfuh-1385" value="&lt;font style=&quot;font-size: 11.5px;&quot;&gt;&lt;span style=&quot;font-size: 11.5px;&quot;&gt;53&lt;/span&gt;&lt;/font&gt;" style="text;html=1;strokeColor=none;fillColor=none;align=center;verticalAlign=middle;whiteSpace=wrap;rounded=0;container=0;fontFamily=Times New Roman;fontSize=11.5;" vertex="1" parent="1">
          <mxGeometry x="507.2179294666282" y="369.23728064371306" width="15.530826592306555" height="15.189619900987545" as="geometry" />
        </mxCell>
        <mxCell id="_YOE5mqV0CH9EQmjLfuh-1349" value="" style="endArrow=classic;html=1;rounded=0;entryX=0.5;entryY=0;entryDx=0;entryDy=0;fontFamily=Times New Roman;fontSize=11;" edge="1" parent="1">
          <mxGeometry width="50" height="50" relative="1" as="geometry">
            <mxPoint x="586.1149852011353" y="304.9416225184507" as="sourcePoint" />
            <mxPoint x="586.3336693798626" y="324.95769323187824" as="targetPoint" />
          </mxGeometry>
        </mxCell>
        <mxCell id="_YOE5mqV0CH9EQmjLfuh-1350" value="" style="rounded=0;whiteSpace=wrap;html=1;rotation=90;container=0;fontFamily=Times New Roman;fontSize=11.5;" vertex="1" parent="1">
          <mxGeometry x="551.0211039975432" y="354.25761982787105" width="72.96027589951254" height="16.009859375640875" as="geometry" />
        </mxCell>
        <mxCell id="_YOE5mqV0CH9EQmjLfuh-1351" value="&lt;font style=&quot;font-size: 11.5px;&quot;&gt;60&lt;/font&gt;" style="text;html=1;strokeColor=none;fillColor=none;align=center;verticalAlign=middle;whiteSpace=wrap;rounded=0;container=0;fontFamily=Times New Roman;fontSize=11.5;" vertex="1" parent="1">
          <mxGeometry x="579.739433764097" y="325.68091496718307" width="15.530826592306555" height="15.257973190541989" as="geometry" />
        </mxCell>
        <mxCell id="_YOE5mqV0CH9EQmjLfuh-1352" value="&lt;font style=&quot;font-size: 11.5px;&quot;&gt;61&lt;/font&gt;" style="text;html=1;strokeColor=none;fillColor=none;align=center;verticalAlign=middle;whiteSpace=wrap;rounded=0;container=0;fontFamily=Times New Roman;fontSize=11.5;" vertex="1" parent="1">
          <mxGeometry x="579.739433764097" y="339.3287884482204" width="15.530826592306555" height="15.92631646618544" as="geometry" />
        </mxCell>
        <mxCell id="_YOE5mqV0CH9EQmjLfuh-1378" style="edgeStyle=orthogonalEdgeStyle;rounded=0;orthogonalLoop=1;jettySize=auto;html=1;exitX=1;exitY=0.25;exitDx=0;exitDy=0;fontSize=11.5;" edge="1" parent="1" source="_YOE5mqV0CH9EQmjLfuh-1353">
          <mxGeometry relative="1" as="geometry">
            <mxPoint x="664" y="359.63" as="targetPoint" />
          </mxGeometry>
        </mxCell>
        <mxCell id="_YOE5mqV0CH9EQmjLfuh-1353" value="62" style="text;html=1;strokeColor=none;fillColor=none;align=center;verticalAlign=middle;whiteSpace=wrap;rounded=0;container=0;fontFamily=Times New Roman;fontSize=11.5;" vertex="1" parent="1">
          <mxGeometry x="579.739433764097" y="355.2551049144057" width="15.530826592306555" height="15.92631646618544" as="geometry" />
        </mxCell>
        <mxCell id="_YOE5mqV0CH9EQmjLfuh-1358" value="" style="endArrow=classic;html=1;rounded=0;entryX=0.5;entryY=0;entryDx=0;entryDy=0;fontFamily=Times New Roman;fontSize=11;" edge="1" parent="1">
          <mxGeometry width="50" height="50" relative="1" as="geometry">
            <mxPoint x="675.4269769056209" y="305.1616225184507" as="sourcePoint" />
            <mxPoint x="675.6456610843483" y="325.17769323187827" as="targetPoint" />
          </mxGeometry>
        </mxCell>
        <mxCell id="_YOE5mqV0CH9EQmjLfuh-1359" value="" style="endArrow=classic;html=1;rounded=0;entryX=0.5;entryY=0;entryDx=0;entryDy=0;fontFamily=Times New Roman;fontSize=11;" edge="1" parent="1">
          <mxGeometry width="50" height="50" relative="1" as="geometry">
            <mxPoint x="711.7849852011352" y="305.1616225184507" as="sourcePoint" />
            <mxPoint x="712.0036693798626" y="325.17769323187827" as="targetPoint" />
          </mxGeometry>
        </mxCell>
        <mxCell id="_YOE5mqV0CH9EQmjLfuh-1360" value="" style="rounded=0;whiteSpace=wrap;html=1;rotation=90;container=0;fontFamily=Times New Roman;fontSize=11.5;" vertex="1" parent="1">
          <mxGeometry x="639.5295997000744" y="354.4776198278711" width="72.96027589951254" height="16.009859375640875" as="geometry" />
        </mxCell>
        <mxCell id="_YOE5mqV0CH9EQmjLfuh-1361" value="" style="rounded=0;whiteSpace=wrap;html=1;rotation=90;container=0;fontFamily=Times New Roman;fontSize=11.5;" vertex="1" parent="1">
          <mxGeometry x="676.6911039975432" y="354.4776198278711" width="72.96027589951254" height="16.009859375640875" as="geometry" />
        </mxCell>
        <mxCell id="_YOE5mqV0CH9EQmjLfuh-1362" value="" style="endArrow=classic;html=1;rounded=0;entryX=0;entryY=0.5;entryDx=0;entryDy=0;exitX=1;exitY=0.5;exitDx=0;exitDy=0;fontFamily=Times New Roman;fontSize=11.5;" edge="1" parent="1">
          <mxGeometry width="50" height="50" relative="1" as="geometry">
            <mxPoint x="723.9402603564038" y="359.15982016235046" as="sourcePoint" />
            <mxPoint x="743.9486372336787" y="359.15982016235046" as="targetPoint" />
          </mxGeometry>
        </mxCell>
        <mxCell id="_YOE5mqV0CH9EQmjLfuh-1363" value="" style="endArrow=classic;html=1;rounded=0;entryX=0;entryY=0.75;entryDx=0;entryDy=0;exitX=1;exitY=0.75;exitDx=0;exitDy=0;fontFamily=Times New Roman;fontSize=11.5;" edge="1" parent="1">
          <mxGeometry width="50" height="50" relative="1" as="geometry">
            <mxPoint x="683.7787560589347" y="358.8275472270162" as="sourcePoint" />
            <mxPoint x="703.9097067765392" y="358.8275472270162" as="targetPoint" />
          </mxGeometry>
        </mxCell>
        <mxCell id="_YOE5mqV0CH9EQmjLfuh-1364" value="&lt;font style=&quot;font-size: 11.5px;&quot;&gt;&lt;span style=&quot;font-size: 11.5px;&quot;&gt;64&lt;/span&gt;&lt;/font&gt;" style="text;html=1;strokeColor=none;fillColor=none;align=center;verticalAlign=middle;whiteSpace=wrap;rounded=0;container=0;fontFamily=Times New Roman;fontSize=11.5;" vertex="1" parent="1">
          <mxGeometry x="668.2479294666282" y="325.9009149671831" width="15.530826592306555" height="15.257973190541989" as="geometry" />
        </mxCell>
        <mxCell id="_YOE5mqV0CH9EQmjLfuh-1365" value="&lt;font style=&quot;font-size: 11.5px;&quot;&gt;&lt;span style=&quot;font-size: 11.5px;&quot;&gt;66&lt;/span&gt;&lt;/font&gt;" style="text;html=1;strokeColor=none;fillColor=none;align=center;verticalAlign=middle;whiteSpace=wrap;rounded=0;container=0;fontFamily=Times New Roman;fontSize=11.5;" vertex="1" parent="1">
          <mxGeometry x="668.2479294666282" y="339.5487884482204" width="15.530826592306555" height="15.92631646618544" as="geometry" />
        </mxCell>
        <mxCell id="_YOE5mqV0CH9EQmjLfuh-1366" value="&lt;font style=&quot;font-size: 11.5px;&quot;&gt;&lt;span style=&quot;font-size: 11.5px;&quot;&gt;68&lt;/span&gt;&lt;/font&gt;" style="text;html=1;strokeColor=none;fillColor=none;align=center;verticalAlign=middle;whiteSpace=wrap;rounded=0;container=0;fontFamily=Times New Roman;fontSize=11.5;" vertex="1" parent="1">
          <mxGeometry x="668.2479294666282" y="354.04728064371307" width="15.530826592306555" height="15.189619900987545" as="geometry" />
        </mxCell>
        <mxCell id="_YOE5mqV0CH9EQmjLfuh-1367" value="&lt;font style=&quot;font-size: 11.5px;&quot;&gt;70&lt;/font&gt;" style="text;html=1;strokeColor=none;fillColor=none;align=center;verticalAlign=middle;whiteSpace=wrap;rounded=0;container=0;fontFamily=Times New Roman;fontSize=11.5;" vertex="1" parent="1">
          <mxGeometry x="705.409433764097" y="325.9009149671831" width="15.530826592306555" height="15.257973190541989" as="geometry" />
        </mxCell>
        <mxCell id="_YOE5mqV0CH9EQmjLfuh-1368" value="&lt;font style=&quot;font-size: 11.5px;&quot;&gt;73&lt;/font&gt;" style="text;html=1;strokeColor=none;fillColor=none;align=center;verticalAlign=middle;whiteSpace=wrap;rounded=0;container=0;fontFamily=Times New Roman;fontSize=11.5;" vertex="1" parent="1">
          <mxGeometry x="705.4048079620102" y="338.9416225184507" width="15.53" height="20" as="geometry" />
        </mxCell>
        <mxCell id="_YOE5mqV0CH9EQmjLfuh-1369" value="&lt;font style=&quot;font-size: 11.5px;&quot;&gt;&lt;span style=&quot;font-size: 11.5px;&quot;&gt;77&lt;/span&gt;&lt;/font&gt;" style="text;html=1;strokeColor=none;fillColor=none;align=center;verticalAlign=middle;whiteSpace=wrap;rounded=0;container=0;fontFamily=Times New Roman;fontSize=11.5;" vertex="1" parent="1">
          <mxGeometry x="705.409433764097" y="355.47510491440573" width="15.530826592306555" height="15.92631646618544" as="geometry" />
        </mxCell>
        <mxCell id="_YOE5mqV0CH9EQmjLfuh-1371" value="" style="endArrow=classic;html=1;rounded=0;entryX=0.5;entryY=0;entryDx=0;entryDy=0;fontFamily=Times New Roman;fontSize=11;" edge="1" parent="1">
          <mxGeometry width="50" height="50" relative="1" as="geometry">
            <mxPoint x="747.1449852011352" y="304.9416225184507" as="sourcePoint" />
            <mxPoint x="747.3636693798626" y="324.95769323187824" as="targetPoint" />
          </mxGeometry>
        </mxCell>
        <mxCell id="_YOE5mqV0CH9EQmjLfuh-1372" value="" style="rounded=0;whiteSpace=wrap;html=1;rotation=90;container=0;fontFamily=Times New Roman;fontSize=11.5;" vertex="1" parent="1">
          <mxGeometry x="712.0511039975431" y="354.25761982787105" width="72.96027589951254" height="16.009859375640875" as="geometry" />
        </mxCell>
        <mxCell id="_YOE5mqV0CH9EQmjLfuh-1373" value="&lt;font style=&quot;font-size: 11.5px;&quot;&gt;79&lt;/font&gt;" style="text;html=1;strokeColor=none;fillColor=none;align=center;verticalAlign=middle;whiteSpace=wrap;rounded=0;container=0;fontFamily=Times New Roman;fontSize=11.5;" vertex="1" parent="1">
          <mxGeometry x="740.769433764097" y="325.68091496718307" width="15.530826592306555" height="15.257973190541989" as="geometry" />
        </mxCell>
        <mxCell id="_YOE5mqV0CH9EQmjLfuh-1374" value="&lt;font style=&quot;font-size: 11.5px;&quot;&gt;81&lt;/font&gt;" style="text;html=1;strokeColor=none;fillColor=none;align=center;verticalAlign=middle;whiteSpace=wrap;rounded=0;container=0;fontFamily=Times New Roman;fontSize=11.5;" vertex="1" parent="1">
          <mxGeometry x="740.769433764097" y="339.3287884482204" width="15.530826592306555" height="15.92631646618544" as="geometry" />
        </mxCell>
        <mxCell id="_YOE5mqV0CH9EQmjLfuh-1375" value="82" style="text;html=1;strokeColor=none;fillColor=none;align=center;verticalAlign=middle;whiteSpace=wrap;rounded=0;container=0;fontFamily=Times New Roman;fontSize=11.5;" vertex="1" parent="1">
          <mxGeometry x="740.769433764097" y="355.2551049144057" width="15.530826592306555" height="15.92631646618544" as="geometry" />
        </mxCell>
        <mxCell id="_YOE5mqV0CH9EQmjLfuh-1386" value="" style="endArrow=classic;html=1;rounded=0;" edge="1" parent="1">
          <mxGeometry width="50" height="50" relative="1" as="geometry">
            <mxPoint x="435" y="198" as="sourcePoint" />
            <mxPoint x="435" y="278" as="targetPoint" />
          </mxGeometry>
        </mxCell>
        <mxCell id="_YOE5mqV0CH9EQmjLfuh-1387" value="" style="group" vertex="1" connectable="0" parent="1">
          <mxGeometry x="252.63201191279916" y="353.0017895857411" width="15.53082659230654" height="31.85263293237091" as="geometry" />
        </mxCell>
        <mxCell id="_YOE5mqV0CH9EQmjLfuh-1026" value="&lt;font style=&quot;font-size: 11.5px;&quot;&gt;34&lt;/font&gt;" style="text;html=1;strokeColor=none;fillColor=none;align=center;verticalAlign=middle;whiteSpace=wrap;rounded=0;container=0;fontFamily=Times New Roman;fontSize=11.5;" vertex="1" parent="_YOE5mqV0CH9EQmjLfuh-1387">
          <mxGeometry y="15.926316466185483" width="15.530826592306555" height="15.92631646618544" as="geometry" />
        </mxCell>
        <mxCell id="_YOE5mqV0CH9EQmjLfuh-1024" value="&lt;font style=&quot;font-size: 11.5px;&quot;&gt;33&lt;/font&gt;" style="text;html=1;strokeColor=none;fillColor=none;align=center;verticalAlign=middle;whiteSpace=wrap;rounded=0;container=0;fontFamily=Times New Roman;fontSize=11.5;" vertex="1" parent="_YOE5mqV0CH9EQmjLfuh-1387">
          <mxGeometry width="15.530826592306555" height="15.92631646618544" as="geometry" />
        </mxCell>
      </root>
    </mxGraphModel>
  </diagram>
</mxfile>
